HIERARCHY
ROOT joint_0
{
	OFFSET 0.000000 0.000000 0.000000
	CHANNELS 6 Xposition Yposition Zposition Zrotation Yrotation Xrotation 
	JOINT joint_1
	{
		OFFSET 1.363060 -1.794630 0.839290
		CHANNELS 3 Zrotation Yrotation Xrotation
		JOINT joint_2
		{
			OFFSET 2.448110 -6.726130 0.000000
			CHANNELS 3 Zrotation Yrotation Xrotation
			JOINT joint_3
			{
				OFFSET 2.562200 -7.039590 0.000000
				CHANNELS 3 Zrotation Yrotation Xrotation
				JOINT joint_4
				{
					OFFSET 0.157640 -0.433110 2.322550
					CHANNELS 3 Zrotation Yrotation Xrotation
					End Site
					{
						OFFSET 0.000000 0.000000 0.000000
					}
				}
			}
		}
	}
	JOINT joint_5
	{
		OFFSET -1.305520 -1.794630 0.839290
		CHANNELS 3 Zrotation Yrotation Xrotation
		JOINT joint_6
		{
			OFFSET -2.542530 -6.985550 0.000000
			CHANNELS 3 Zrotation Yrotation Xrotation
			JOINT joint_7
			{
				OFFSET -2.568260 -7.056230 0.000000
				CHANNELS 3 Zrotation Yrotation Xrotation
				JOINT joint_8
				{
					OFFSET -0.164730 -0.452590 2.363150
					CHANNELS 3 Zrotation Yrotation Xrotation
					End Site
					{
						OFFSET 0.000000 0.000000 0.000000
					}
				}
			}
		}
	}
	JOINT joint_9
	{
		OFFSET 0.028270 2.035590 -0.193380
		CHANNELS 3 Zrotation Yrotation Xrotation
		JOINT joint_10
		{
			OFFSET 0.056720 2.048850 -0.042750
			CHANNELS 3 Zrotation Yrotation Xrotation
			JOINT joint_11
			{
				OFFSET -0.054170 1.746240 0.172020
				CHANNELS 3 Zrotation Yrotation Xrotation
				JOINT joint_12
				{
					OFFSET 0.104070 1.761360 -0.123970
					CHANNELS 3 Zrotation Yrotation Xrotation
					End Site
					{
						OFFSET 0.000000 0.000000 0.000000
					}
				}
			}
			JOINT joint_13
			{
				OFFSET 3.362410 1.200890 -0.311210
				CHANNELS 3 Zrotation Yrotation Xrotation
				JOINT joint_14
				{
					OFFSET 4.983000 -0.000000 -0.000000
					CHANNELS 3 Zrotation Yrotation Xrotation
					JOINT joint_15
					{
						OFFSET 3.483560 -0.000000 -0.000000
						CHANNELS 3 Zrotation Yrotation Xrotation
						JOINT joint_16
						{
							OFFSET 0.715260 -0.000000 -0.000000
							CHANNELS 3 Zrotation Yrotation Xrotation
							End Site
							{
								OFFSET 0.000000 0.000000 0.000000
							}
						}
					}
				}
			}
			JOINT joint_17
			{
				OFFSET -3.136600 1.374050 -0.404650
				CHANNELS 3 Zrotation Yrotation Xrotation
				JOINT joint_18
				{
					OFFSET -5.241900 -0.000000 -0.000000
					CHANNELS 3 Zrotation Yrotation Xrotation
					JOINT joint_19
					{
						OFFSET -3.444170 -0.000000 -0.000000
						CHANNELS 3 Zrotation Yrotation Xrotation
						JOINT joint_20
						{
							OFFSET -0.622530 -0.000000 -0.000000
							CHANNELS 3 Zrotation Yrotation Xrotation
							End Site
							{
								OFFSET 0.000000 0.000000 0.000000
							}
						}
					}
				}
			}
		}
	}
}
MOTION
Frames: 7
Frame Time: 0.041667
9.372200 17.869301 -17.319799 -3.231600 -7.597000 -2.016800 -18.007013 -1.061413 1.746586 1.188784 6.265487 19.190351 0.661753 2.560461 -13.197963 0.065851 -1.529382 -4.054947 21.363914 5.996653 -1.225512 -1.798596 -7.606597 25.215503 -1.424936 -3.839981 -13.764440 0.059023 -0.632424 1.815246 1.622729 -1.014680 1.548612 0.870346 -0.476621 -1.214685 3.088016 -2.799891 23.667491 0.828035 -1.374354 10.875548 -64.290880 -34.337619 27.323183 110.246181 -55.836670 -75.022410 0.726433 -0.007249 -8.835359 -7.073689 0.009477 0.000619 84.536179 0.516902 15.417981 -21.724699 29.976104 -6.139634 0.147076 0.059199 -3.491036 7.101573 -0.006544 0.071346 
9.372800 17.866600 -17.319201 -3.100900 -7.588300 -2.063800 -17.712588 -0.990236 1.827345 0.784175 6.276991 18.869488 0.649812 3.011253 -13.594187 0.027011 -1.293417 -3.384661 21.466396 6.053794 -0.657357 -2.008594 -7.746945 24.477191 -1.268826 -3.656671 -14.069733 0.050828 -0.721902 1.946448 1.987629 -0.783496 1.466542 0.742843 -0.516149 -1.380055 2.183442 -2.745556 24.122988 0.765472 -1.442095 11.114835 -64.260585 -35.274483 27.699928 116.469888 -54.429684 -80.315808 0.865199 -0.211126 -8.670661 -7.078334 -0.009498 -0.015895 86.204659 0.105993 15.333314 -21.700946 28.584964 -5.367471 0.125502 -0.502483 -2.843311 7.086213 -0.024174 0.049359 
9.369200 17.865801 -17.321501 -3.209500 -7.535400 -2.086200 -17.604042 -0.689480 2.222683 0.425412 5.751567 18.722668 0.456152 3.187362 -13.555483 0.007979 -1.079812 -2.799870 21.467487 5.369322 -0.256450 -1.439456 -7.680706 23.972215 -1.395625 -3.737734 -14.057882 0.052026 -0.824809 2.220605 1.560987 -0.667025 1.819307 1.070380 -0.247970 -1.083635 2.060916 -2.776650 24.199039 0.749959 -1.498440 11.254819 -63.688860 -35.337928 26.674164 120.499762 -53.111407 -83.518970 0.776951 -0.042105 -8.547693 -7.079139 -0.013935 -0.019305 86.810558 0.706549 15.358014 -20.442734 27.261115 -4.507660 -0.197143 -0.310647 -2.593846 7.083227 -0.028531 0.041827 
9.372600 17.859699 -17.326000 -2.956100 -7.383200 -2.199400 -17.780950 -0.174503 2.262170 0.560187 6.161378 18.978197 0.793757 3.207303 -13.215709 -0.002480 -0.933591 -2.398610 21.583230 5.258241 0.074683 -1.586805 -7.554201 23.873982 -1.559354 -3.333647 -13.675961 0.055356 -0.900476 2.428508 1.641491 -0.735326 1.525803 1.017517 -0.325378 -1.126846 1.518863 -2.744564 25.252233 0.714784 -1.541550 11.344882 -62.924882 -35.387110 26.292281 124.036944 -51.835567 -86.175130 1.003691 0.009956 -8.004813 -7.082878 -0.015101 -0.019919 86.688137 1.187637 14.994315 -18.930480 24.848808 -4.188950 -0.085550 -0.277582 -2.269917 7.079163 -0.031264 0.039853 
9.373300 17.853600 -17.331699 -2.911000 -7.352700 -2.268800 -17.539599 0.313213 2.210616 0.437811 5.763739 18.855807 0.408342 2.788342 -13.211803 -0.011251 -0.818442 -2.074799 21.626749 4.545878 0.399386 -1.552831 -7.677704 24.038142 -1.725258 -3.256355 -13.491683 0.056328 -0.995047 2.670762 1.698074 -0.732370 1.949509 1.080491 -0.519494 -0.492954 1.381239 -2.919784 25.195549 0.673917 -1.578789 11.359322 -62.493972 -35.341533 25.912113 126.252738 -50.987386 -87.456658 1.019357 -0.327955 -7.337530 -7.087676 -0.016933 -0.021421 86.697354 1.510819 14.308625 -17.670307 23.527401 -3.654472 -0.119155 -0.379870 -1.819731 7.073553 -0.035069 0.039646 
9.368900 17.853001 -17.334999 -3.043400 -7.380700 -2.275000 -17.631721 0.655708 2.302904 0.463202 6.035240 19.249414 0.708699 2.953543 -13.021089 -0.021140 -0.745177 -1.843204 21.770196 4.395810 0.559763 -1.781921 -7.495578 24.375499 -1.805801 -3.270390 -13.888061 0.054657 -1.075146 2.852871 1.532730 -0.738397 1.977189 1.173765 -0.245424 -0.735418 1.141833 -2.525742 25.454816 0.593065 -1.619782 11.346991 -62.031521 -34.895853 26.083605 127.782839 -50.262712 -88.601875 1.161160 -0.325573 -6.897958 -7.096004 -0.022168 -0.025284 86.176794 1.748042 13.936424 -16.409828 21.855582 -2.846446 -0.031059 -0.344514 -2.173915 7.066139 -0.041563 0.036172 
9.367600 17.852600 -17.337500 -3.038200 -7.253000 -2.268600 -17.719402 0.941072 2.172412 0.401528 6.141726 19.436235 0.671155 2.955824 -12.958518 -0.033712 -0.715819 -1.719312 22.040259 4.315925 0.436363 -1.755446 -7.668935 24.580272 -1.766648 -3.307787 -13.376252 0.051317 -1.110228 2.877813 1.566280 -0.904010 2.091235 1.490022 -0.422248 -1.023491 1.126205 -3.021890 25.597351 0.517039 -1.680538 11.256996 -61.344707 -35.151941 25.779943 129.167018 -49.474427 -89.821890 1.277199 -0.304439 -6.688537 -7.101500 -0.031886 -0.033110 85.458845 2.190676 13.622570 -15.441771 20.211731 -2.630333 -0.140617 -0.375744 -2.280111 7.051241 -0.052154 0.028774 
